<mxfile host="app.diagrams.net" agent="Mozilla/5.0 (Windows NT 10.0; Win64; x64) AppleWebKit/537.36 (KHTML, like Gecko) Chrome/136.0.0.0 Safari/537.36" version="27.0.2">
  <diagram name="Page-1" id="l1g4KpjitnGV14DNMO7M">
    <mxGraphModel dx="1281" dy="562" grid="1" gridSize="10" guides="1" tooltips="1" connect="1" arrows="1" fold="1" page="1" pageScale="1" pageWidth="1169" pageHeight="1654" math="0" shadow="0">
      <root>
        <mxCell id="0" />
        <mxCell id="1" parent="0" />
        <mxCell id="qECTr6zoX_LYbof8itnt-2" value="&lt;font style=&quot;font-size: 14px;&quot;&gt;searcher:User&lt;/font&gt;" style="swimlane;fontStyle=0;childLayout=stackLayout;horizontal=1;startSize=26;fillColor=none;horizontalStack=0;resizeParent=1;resizeParentMax=0;resizeLast=0;collapsible=1;marginBottom=0;whiteSpace=wrap;html=1;" vertex="1" parent="1">
          <mxGeometry x="490" y="130" width="150" height="120" as="geometry" />
        </mxCell>
        <mxCell id="qECTr6zoX_LYbof8itnt-3" value="&lt;font style=&quot;font-size: 14px;&quot;&gt;&lt;span style=&quot;text-wrap-mode: nowrap;&quot;&gt;Name= Ahmed Ali&lt;/span&gt;&lt;br style=&quot;text-wrap-mode: nowrap; padding: 0px; margin: 0px;&quot;&gt;&lt;span style=&quot;text-wrap-mode: nowrap;&quot;&gt;Password= ******&lt;/span&gt;&lt;br style=&quot;text-wrap-mode: nowrap; padding: 0px; margin: 0px;&quot;&gt;&lt;span style=&quot;text-wrap-mode: nowrap;&quot;&gt;userid= 2&lt;/span&gt;&lt;/font&gt;" style="text;strokeColor=none;fillColor=none;align=left;verticalAlign=top;spacingLeft=4;spacingRight=4;overflow=hidden;rotatable=0;points=[[0,0.5],[1,0.5]];portConstraint=eastwest;whiteSpace=wrap;html=1;" vertex="1" parent="qECTr6zoX_LYbof8itnt-2">
          <mxGeometry y="26" width="150" height="94" as="geometry" />
        </mxCell>
        <mxCell id="qECTr6zoX_LYbof8itnt-4" value="&lt;font style=&quot;font-size: 18px;&quot;&gt;Search for product&lt;/font&gt;" style="text;align=center;fontStyle=1;verticalAlign=middle;spacingLeft=3;spacingRight=3;strokeColor=none;rotatable=0;points=[[0,0.5],[1,0.5]];portConstraint=eastwest;html=1;" vertex="1" parent="1">
          <mxGeometry x="490" y="20" width="190" height="26" as="geometry" />
        </mxCell>
        <mxCell id="qECTr6zoX_LYbof8itnt-5" value="&lt;font style=&quot;font-size: 18px;&quot;&gt;Preconditions&lt;/font&gt;" style="text;html=1;align=center;verticalAlign=middle;resizable=0;points=[];autosize=1;strokeColor=none;fillColor=none;" vertex="1" parent="1">
          <mxGeometry x="500" y="53" width="130" height="40" as="geometry" />
        </mxCell>
        <mxCell id="qECTr6zoX_LYbof8itnt-6" value="&lt;font style=&quot;font-size: 14px;&quot;&gt;:Location&lt;/font&gt;" style="swimlane;fontStyle=0;childLayout=stackLayout;horizontal=1;startSize=26;fillColor=none;horizontalStack=0;resizeParent=1;resizeParentMax=0;resizeLast=0;collapsible=1;marginBottom=0;whiteSpace=wrap;html=1;" vertex="1" parent="1">
          <mxGeometry x="110" y="483" width="140" height="100" as="geometry" />
        </mxCell>
        <mxCell id="qECTr6zoX_LYbof8itnt-7" value="&lt;font style=&quot;font-size: 14px;&quot;&gt;&lt;span style=&quot;text-wrap-mode: nowrap;&quot;&gt;Area= &quot;&quot;&lt;/span&gt;&lt;br style=&quot;padding: 0px; margin: 0px; text-wrap-mode: nowrap;&quot;&gt;&lt;span style=&quot;text-wrap-mode: nowrap;&quot;&gt;Country name= &quot;&quot;&lt;/span&gt;&lt;/font&gt;&lt;div style=&quot;padding: 0px; margin: 0px; text-wrap-mode: nowrap;&quot;&gt;&lt;font size=&quot;3&quot;&gt;City name= &quot;&quot;&lt;/font&gt;&lt;/div&gt;" style="text;strokeColor=none;fillColor=none;align=left;verticalAlign=top;spacingLeft=4;spacingRight=4;overflow=hidden;rotatable=0;points=[[0,0.5],[1,0.5]];portConstraint=eastwest;whiteSpace=wrap;html=1;" vertex="1" parent="qECTr6zoX_LYbof8itnt-6">
          <mxGeometry y="26" width="140" height="74" as="geometry" />
        </mxCell>
        <mxCell id="qECTr6zoX_LYbof8itnt-8" value="&lt;font style=&quot;font-size: 14px;&quot;&gt;:product&lt;/font&gt;" style="swimlane;fontStyle=0;childLayout=stackLayout;horizontal=1;startSize=26;fillColor=none;horizontalStack=0;resizeParent=1;resizeParentMax=0;resizeLast=0;collapsible=1;marginBottom=0;whiteSpace=wrap;html=1;" vertex="1" parent="1">
          <mxGeometry x="425" y="420" width="160" height="100" as="geometry" />
        </mxCell>
        <mxCell id="qECTr6zoX_LYbof8itnt-9" value="&lt;font style=&quot;font-size: 14px;&quot;&gt;&lt;span style=&quot;text-wrap-mode: nowrap;&quot;&gt;ID= unset&lt;/span&gt;&lt;br style=&quot;padding: 0px; margin: 0px; text-wrap-mode: nowrap;&quot;&gt;&lt;span style=&quot;text-wrap-mode: nowrap;&quot;&gt;Name= &quot;&quot;&lt;/span&gt;&lt;br style=&quot;padding: 0px; margin: 0px; text-wrap-mode: nowrap;&quot;&gt;&lt;span style=&quot;text-wrap-mode: nowrap;&quot;&gt;Description= &quot;&quot;&lt;/span&gt;&lt;br style=&quot;padding: 0px; margin: 0px; text-wrap-mode: nowrap;&quot;&gt;&lt;span style=&quot;text-wrap-mode: nowrap;&quot;&gt;Photo: NULL&lt;/span&gt;&lt;/font&gt;" style="text;strokeColor=none;fillColor=none;align=left;verticalAlign=top;spacingLeft=4;spacingRight=4;overflow=hidden;rotatable=0;points=[[0,0.5],[1,0.5]];portConstraint=eastwest;whiteSpace=wrap;html=1;" vertex="1" parent="qECTr6zoX_LYbof8itnt-8">
          <mxGeometry y="26" width="160" height="74" as="geometry" />
        </mxCell>
        <mxCell id="qECTr6zoX_LYbof8itnt-10" value="" style="endArrow=open;endFill=1;endSize=12;html=1;rounded=0;exitX=0.343;exitY=1.032;exitDx=0;exitDy=0;exitPerimeter=0;entryX=0.567;entryY=-0.014;entryDx=0;entryDy=0;entryPerimeter=0;" edge="1" parent="1" source="qECTr6zoX_LYbof8itnt-3" target="qECTr6zoX_LYbof8itnt-8">
          <mxGeometry width="160" relative="1" as="geometry">
            <mxPoint x="500" y="370" as="sourcePoint" />
            <mxPoint x="660" y="370" as="targetPoint" />
          </mxGeometry>
        </mxCell>
        <mxCell id="qECTr6zoX_LYbof8itnt-11" value="searches for" style="edgeLabel;html=1;align=center;verticalAlign=middle;resizable=0;points=[];" vertex="1" connectable="0" parent="qECTr6zoX_LYbof8itnt-10">
          <mxGeometry x="-0.1261" y="3" relative="1" as="geometry">
            <mxPoint as="offset" />
          </mxGeometry>
        </mxCell>
        <mxCell id="qECTr6zoX_LYbof8itnt-12" value="*" style="text;html=1;align=center;verticalAlign=middle;resizable=0;points=[];autosize=1;strokeColor=none;fillColor=none;" vertex="1" parent="1">
          <mxGeometry x="545" y="248" width="30" height="30" as="geometry" />
        </mxCell>
        <mxCell id="qECTr6zoX_LYbof8itnt-13" value="*" style="text;html=1;align=center;verticalAlign=middle;resizable=0;points=[];autosize=1;strokeColor=none;fillColor=none;" vertex="1" parent="1">
          <mxGeometry x="515" y="388" width="30" height="30" as="geometry" />
        </mxCell>
        <mxCell id="qECTr6zoX_LYbof8itnt-14" value="&lt;font style=&quot;font-size: 14px;&quot;&gt;:Category&lt;/font&gt;" style="swimlane;fontStyle=0;childLayout=stackLayout;horizontal=1;startSize=26;fillColor=none;horizontalStack=0;resizeParent=1;resizeParentMax=0;resizeLast=0;collapsible=1;marginBottom=0;whiteSpace=wrap;html=1;" vertex="1" parent="1">
          <mxGeometry x="720" y="493" width="150" height="80" as="geometry" />
        </mxCell>
        <mxCell id="qECTr6zoX_LYbof8itnt-15" value="&lt;font style=&quot;font-size: 14px;&quot;&gt;CategoryId=Null&lt;/font&gt;&lt;div&gt;&lt;font style=&quot;font-size: 14px;&quot;&gt;name=&quot;&quot;&lt;/font&gt;&lt;/div&gt;" style="text;strokeColor=none;fillColor=none;align=left;verticalAlign=top;spacingLeft=4;spacingRight=4;overflow=hidden;rotatable=0;points=[[0,0.5],[1,0.5]];portConstraint=eastwest;whiteSpace=wrap;html=1;" vertex="1" parent="qECTr6zoX_LYbof8itnt-14">
          <mxGeometry y="26" width="150" height="54" as="geometry" />
        </mxCell>
        <mxCell id="qECTr6zoX_LYbof8itnt-18" value="" style="endArrow=open;endFill=1;endSize=12;html=1;rounded=0;exitX=0.992;exitY=0.819;exitDx=0;exitDy=0;exitPerimeter=0;" edge="1" parent="1" source="qECTr6zoX_LYbof8itnt-9" target="qECTr6zoX_LYbof8itnt-14">
          <mxGeometry width="160" relative="1" as="geometry">
            <mxPoint x="505" y="550" as="sourcePoint" />
            <mxPoint x="665" y="550" as="targetPoint" />
          </mxGeometry>
        </mxCell>
        <mxCell id="qECTr6zoX_LYbof8itnt-19" value="belongs to" style="edgeLabel;html=1;align=center;verticalAlign=middle;resizable=0;points=[];" vertex="1" connectable="0" parent="qECTr6zoX_LYbof8itnt-18">
          <mxGeometry x="-0.2828" y="-1" relative="1" as="geometry">
            <mxPoint x="1" as="offset" />
          </mxGeometry>
        </mxCell>
        <mxCell id="qECTr6zoX_LYbof8itnt-20" value="1" style="text;html=1;align=center;verticalAlign=middle;resizable=0;points=[];autosize=1;strokeColor=none;fillColor=none;" vertex="1" parent="1">
          <mxGeometry x="680" y="530" width="30" height="30" as="geometry" />
        </mxCell>
        <mxCell id="qECTr6zoX_LYbof8itnt-21" value="0..*" style="text;html=1;align=center;verticalAlign=middle;resizable=0;points=[];autosize=1;strokeColor=none;fillColor=none;" vertex="1" parent="1">
          <mxGeometry x="590" y="480" width="40" height="30" as="geometry" />
        </mxCell>
        <mxCell id="qECTr6zoX_LYbof8itnt-22" value="" style="endArrow=open;endFill=1;endSize=12;html=1;rounded=0;entryX=1.036;entryY=0.205;entryDx=0;entryDy=0;entryPerimeter=0;exitX=-0.012;exitY=0.365;exitDx=0;exitDy=0;exitPerimeter=0;" edge="1" parent="1" source="qECTr6zoX_LYbof8itnt-9" target="qECTr6zoX_LYbof8itnt-7">
          <mxGeometry width="160" relative="1" as="geometry">
            <mxPoint x="230" y="420" as="sourcePoint" />
            <mxPoint x="390" y="420" as="targetPoint" />
          </mxGeometry>
        </mxCell>
        <mxCell id="qECTr6zoX_LYbof8itnt-26" value="located in" style="edgeLabel;html=1;align=center;verticalAlign=middle;resizable=0;points=[];" vertex="1" connectable="0" parent="qECTr6zoX_LYbof8itnt-22">
          <mxGeometry x="-0.067" y="-2" relative="1" as="geometry">
            <mxPoint as="offset" />
          </mxGeometry>
        </mxCell>
        <mxCell id="qECTr6zoX_LYbof8itnt-23" value="" style="endArrow=open;endFill=1;endSize=12;html=1;rounded=0;entryX=0.653;entryY=-0.012;entryDx=0;entryDy=0;entryPerimeter=0;exitX=-0.004;exitY=0.896;exitDx=0;exitDy=0;exitPerimeter=0;" edge="1" parent="1" source="qECTr6zoX_LYbof8itnt-3" target="qECTr6zoX_LYbof8itnt-6">
          <mxGeometry width="160" relative="1" as="geometry">
            <mxPoint x="250" y="262.5" as="sourcePoint" />
            <mxPoint x="410" y="262.5" as="targetPoint" />
          </mxGeometry>
        </mxCell>
        <mxCell id="qECTr6zoX_LYbof8itnt-24" value="Filter by" style="edgeLabel;html=1;align=center;verticalAlign=middle;resizable=0;points=[];" vertex="1" connectable="0" parent="qECTr6zoX_LYbof8itnt-23">
          <mxGeometry x="-0.0842" y="-2" relative="1" as="geometry">
            <mxPoint as="offset" />
          </mxGeometry>
        </mxCell>
        <mxCell id="qECTr6zoX_LYbof8itnt-27" value="" style="endArrow=open;endFill=1;endSize=12;html=1;rounded=0;entryX=0.153;entryY=0;entryDx=0;entryDy=0;entryPerimeter=0;" edge="1" parent="1" target="qECTr6zoX_LYbof8itnt-14">
          <mxGeometry width="160" relative="1" as="geometry">
            <mxPoint x="640" y="240" as="sourcePoint" />
            <mxPoint x="800" y="240" as="targetPoint" />
          </mxGeometry>
        </mxCell>
        <mxCell id="qECTr6zoX_LYbof8itnt-28" value="filterby" style="edgeLabel;html=1;align=center;verticalAlign=middle;resizable=0;points=[];" vertex="1" connectable="0" parent="qECTr6zoX_LYbof8itnt-27">
          <mxGeometry x="-0.1762" y="-4" relative="1" as="geometry">
            <mxPoint y="-1" as="offset" />
          </mxGeometry>
        </mxCell>
        <mxCell id="qECTr6zoX_LYbof8itnt-29" value="1" style="text;html=1;align=center;verticalAlign=middle;resizable=0;points=[];autosize=1;strokeColor=none;fillColor=none;" vertex="1" parent="1">
          <mxGeometry x="745" y="458" width="30" height="30" as="geometry" />
        </mxCell>
        <mxCell id="qECTr6zoX_LYbof8itnt-30" value="" style="line;strokeWidth=1;fillColor=none;align=left;verticalAlign=middle;spacingTop=-1;spacingLeft=3;spacingRight=3;rotatable=0;labelPosition=right;points=[];portConstraint=eastwest;strokeColor=inherit;" vertex="1" parent="1">
          <mxGeometry y="640" width="1130" height="8" as="geometry" />
        </mxCell>
        <mxCell id="qECTr6zoX_LYbof8itnt-31" value="&lt;font style=&quot;font-size: 14px;&quot;&gt;searcher:User&lt;/font&gt;" style="swimlane;fontStyle=0;childLayout=stackLayout;horizontal=1;startSize=26;fillColor=none;horizontalStack=0;resizeParent=1;resizeParentMax=0;resizeLast=0;collapsible=1;marginBottom=0;whiteSpace=wrap;html=1;" vertex="1" parent="1">
          <mxGeometry x="440" y="760" width="150" height="120" as="geometry" />
        </mxCell>
        <mxCell id="qECTr6zoX_LYbof8itnt-32" value="&lt;font style=&quot;font-size: 14px;&quot;&gt;&lt;span style=&quot;text-wrap-mode: nowrap;&quot;&gt;Name= Ahmed Ali&lt;/span&gt;&lt;br style=&quot;text-wrap-mode: nowrap; padding: 0px; margin: 0px;&quot;&gt;&lt;span style=&quot;text-wrap-mode: nowrap;&quot;&gt;Password= ******&lt;/span&gt;&lt;br style=&quot;text-wrap-mode: nowrap; padding: 0px; margin: 0px;&quot;&gt;&lt;span style=&quot;text-wrap-mode: nowrap;&quot;&gt;userid= 2&lt;/span&gt;&lt;/font&gt;" style="text;strokeColor=none;fillColor=none;align=left;verticalAlign=top;spacingLeft=4;spacingRight=4;overflow=hidden;rotatable=0;points=[[0,0.5],[1,0.5]];portConstraint=eastwest;whiteSpace=wrap;html=1;" vertex="1" parent="qECTr6zoX_LYbof8itnt-31">
          <mxGeometry y="26" width="150" height="94" as="geometry" />
        </mxCell>
        <mxCell id="qECTr6zoX_LYbof8itnt-33" value="&lt;font style=&quot;font-size: 14px;&quot;&gt;l1:Location&lt;/font&gt;" style="swimlane;fontStyle=0;childLayout=stackLayout;horizontal=1;startSize=26;fillColor=none;horizontalStack=0;resizeParent=1;resizeParentMax=0;resizeLast=0;collapsible=1;marginBottom=0;whiteSpace=wrap;html=1;" vertex="1" parent="1">
          <mxGeometry x="60" y="1113" width="150" height="100" as="geometry" />
        </mxCell>
        <mxCell id="qECTr6zoX_LYbof8itnt-34" value="&lt;font style=&quot;font-size: 14px;&quot;&gt;&lt;span style=&quot;text-wrap-mode: nowrap;&quot;&gt;Area= &quot;Faisal&quot;&lt;/span&gt;&lt;br style=&quot;padding: 0px; margin: 0px; text-wrap-mode: nowrap;&quot;&gt;&lt;span style=&quot;text-wrap-mode: nowrap;&quot;&gt;Country name= &quot;egypt&quot;&lt;/span&gt;&lt;/font&gt;&lt;div style=&quot;padding: 0px; margin: 0px; text-wrap-mode: nowrap;&quot;&gt;&lt;font size=&quot;3&quot;&gt;City name= &quot;Giza&quot;&lt;/font&gt;&lt;/div&gt;" style="text;strokeColor=none;fillColor=none;align=left;verticalAlign=top;spacingLeft=4;spacingRight=4;overflow=hidden;rotatable=0;points=[[0,0.5],[1,0.5]];portConstraint=eastwest;whiteSpace=wrap;html=1;" vertex="1" parent="qECTr6zoX_LYbof8itnt-33">
          <mxGeometry y="26" width="150" height="74" as="geometry" />
        </mxCell>
        <mxCell id="qECTr6zoX_LYbof8itnt-35" value="&lt;font style=&quot;font-size: 14px;&quot;&gt;p1:product&lt;/font&gt;" style="swimlane;fontStyle=0;childLayout=stackLayout;horizontal=1;startSize=26;fillColor=none;horizontalStack=0;resizeParent=1;resizeParentMax=0;resizeLast=0;collapsible=1;marginBottom=0;whiteSpace=wrap;html=1;" vertex="1" parent="1">
          <mxGeometry x="375" y="1050" width="160" height="140" as="geometry" />
        </mxCell>
        <mxCell id="qECTr6zoX_LYbof8itnt-36" value="&lt;font style=&quot;font-size: 14px;&quot;&gt;&lt;span style=&quot;text-wrap-mode: nowrap;&quot;&gt;ID= 8&lt;/span&gt;&lt;br style=&quot;padding: 0px; margin: 0px; text-wrap-mode: nowrap;&quot;&gt;&lt;span style=&quot;text-wrap-mode: nowrap;&quot;&gt;Name= &quot;Playstation 5&quot;&lt;/span&gt;&lt;br style=&quot;padding: 0px; margin: 0px; text-wrap-mode: nowrap;&quot;&gt;&lt;span style=&quot;text-wrap-mode: nowrap;&quot;&gt;Description= &quot;PS5 good&lt;/span&gt;&lt;/font&gt;&lt;div&gt;&lt;font style=&quot;font-size: 14px;&quot;&gt;&lt;span style=&quot;text-wrap-mode: nowrap;&quot;&gt;condition&quot;&lt;/span&gt;&lt;br style=&quot;padding: 0px; margin: 0px; text-wrap-mode: nowrap;&quot;&gt;&lt;span style=&quot;text-wrap-mode: nowrap;&quot;&gt;Photo= img.png&lt;/span&gt;&lt;/font&gt;&lt;/div&gt;" style="text;strokeColor=none;fillColor=none;align=left;verticalAlign=top;spacingLeft=4;spacingRight=4;overflow=hidden;rotatable=0;points=[[0,0.5],[1,0.5]];portConstraint=eastwest;whiteSpace=wrap;html=1;" vertex="1" parent="qECTr6zoX_LYbof8itnt-35">
          <mxGeometry y="26" width="160" height="114" as="geometry" />
        </mxCell>
        <mxCell id="qECTr6zoX_LYbof8itnt-37" value="" style="endArrow=open;endFill=1;endSize=12;html=1;rounded=0;exitX=0.343;exitY=1.032;exitDx=0;exitDy=0;exitPerimeter=0;entryX=0.567;entryY=-0.014;entryDx=0;entryDy=0;entryPerimeter=0;" edge="1" parent="1" source="qECTr6zoX_LYbof8itnt-32" target="qECTr6zoX_LYbof8itnt-35">
          <mxGeometry width="160" relative="1" as="geometry">
            <mxPoint x="450" y="1000" as="sourcePoint" />
            <mxPoint x="610" y="1000" as="targetPoint" />
          </mxGeometry>
        </mxCell>
        <mxCell id="qECTr6zoX_LYbof8itnt-38" value="searches for" style="edgeLabel;html=1;align=center;verticalAlign=middle;resizable=0;points=[];" vertex="1" connectable="0" parent="qECTr6zoX_LYbof8itnt-37">
          <mxGeometry x="-0.1261" y="3" relative="1" as="geometry">
            <mxPoint as="offset" />
          </mxGeometry>
        </mxCell>
        <mxCell id="qECTr6zoX_LYbof8itnt-39" value="*" style="text;html=1;align=center;verticalAlign=middle;resizable=0;points=[];autosize=1;strokeColor=none;fillColor=none;" vertex="1" parent="1">
          <mxGeometry x="495" y="878" width="30" height="30" as="geometry" />
        </mxCell>
        <mxCell id="qECTr6zoX_LYbof8itnt-40" value="*" style="text;html=1;align=center;verticalAlign=middle;resizable=0;points=[];autosize=1;strokeColor=none;fillColor=none;" vertex="1" parent="1">
          <mxGeometry x="465" y="1018" width="30" height="30" as="geometry" />
        </mxCell>
        <mxCell id="qECTr6zoX_LYbof8itnt-41" value="&lt;font style=&quot;font-size: 14px;&quot;&gt;e:Category&lt;/font&gt;" style="swimlane;fontStyle=0;childLayout=stackLayout;horizontal=1;startSize=26;fillColor=none;horizontalStack=0;resizeParent=1;resizeParentMax=0;resizeLast=0;collapsible=1;marginBottom=0;whiteSpace=wrap;html=1;" vertex="1" parent="1">
          <mxGeometry x="670" y="1123" width="150" height="80" as="geometry" />
        </mxCell>
        <mxCell id="qECTr6zoX_LYbof8itnt-42" value="&lt;font style=&quot;font-size: 14px;&quot;&gt;CategoryId=1&lt;/font&gt;&lt;div&gt;&lt;font style=&quot;font-size: 14px;&quot;&gt;name=&quot;electronics&quot;&lt;/font&gt;&lt;/div&gt;" style="text;strokeColor=none;fillColor=none;align=left;verticalAlign=top;spacingLeft=4;spacingRight=4;overflow=hidden;rotatable=0;points=[[0,0.5],[1,0.5]];portConstraint=eastwest;whiteSpace=wrap;html=1;" vertex="1" parent="qECTr6zoX_LYbof8itnt-41">
          <mxGeometry y="26" width="150" height="54" as="geometry" />
        </mxCell>
        <mxCell id="qECTr6zoX_LYbof8itnt-43" value="" style="endArrow=open;endFill=1;endSize=12;html=1;rounded=0;exitX=0.992;exitY=0.819;exitDx=0;exitDy=0;exitPerimeter=0;" edge="1" parent="1" source="qECTr6zoX_LYbof8itnt-36" target="qECTr6zoX_LYbof8itnt-41">
          <mxGeometry width="160" relative="1" as="geometry">
            <mxPoint x="455" y="1180" as="sourcePoint" />
            <mxPoint x="615" y="1180" as="targetPoint" />
          </mxGeometry>
        </mxCell>
        <mxCell id="qECTr6zoX_LYbof8itnt-44" value="belongs to" style="edgeLabel;html=1;align=center;verticalAlign=middle;resizable=0;points=[];" vertex="1" connectable="0" parent="qECTr6zoX_LYbof8itnt-43">
          <mxGeometry x="-0.2828" y="-1" relative="1" as="geometry">
            <mxPoint x="1" as="offset" />
          </mxGeometry>
        </mxCell>
        <mxCell id="qECTr6zoX_LYbof8itnt-45" value="1" style="text;html=1;align=center;verticalAlign=middle;resizable=0;points=[];autosize=1;strokeColor=none;fillColor=none;" vertex="1" parent="1">
          <mxGeometry x="630" y="1160" width="30" height="30" as="geometry" />
        </mxCell>
        <mxCell id="qECTr6zoX_LYbof8itnt-46" value="0..*" style="text;html=1;align=center;verticalAlign=middle;resizable=0;points=[];autosize=1;strokeColor=none;fillColor=none;" vertex="1" parent="1">
          <mxGeometry x="540" y="1110" width="40" height="30" as="geometry" />
        </mxCell>
        <mxCell id="qECTr6zoX_LYbof8itnt-47" value="" style="endArrow=open;endFill=1;endSize=12;html=1;rounded=0;entryX=1.036;entryY=0.205;entryDx=0;entryDy=0;entryPerimeter=0;exitX=-0.012;exitY=0.365;exitDx=0;exitDy=0;exitPerimeter=0;" edge="1" parent="1" source="qECTr6zoX_LYbof8itnt-36" target="qECTr6zoX_LYbof8itnt-34">
          <mxGeometry width="160" relative="1" as="geometry">
            <mxPoint x="180" y="1050" as="sourcePoint" />
            <mxPoint x="340" y="1050" as="targetPoint" />
          </mxGeometry>
        </mxCell>
        <mxCell id="qECTr6zoX_LYbof8itnt-48" value="located in" style="edgeLabel;html=1;align=center;verticalAlign=middle;resizable=0;points=[];" vertex="1" connectable="0" parent="qECTr6zoX_LYbof8itnt-47">
          <mxGeometry x="-0.067" y="-2" relative="1" as="geometry">
            <mxPoint as="offset" />
          </mxGeometry>
        </mxCell>
        <mxCell id="qECTr6zoX_LYbof8itnt-49" value="" style="endArrow=open;endFill=1;endSize=12;html=1;rounded=0;entryX=0.653;entryY=-0.012;entryDx=0;entryDy=0;entryPerimeter=0;exitX=-0.004;exitY=0.896;exitDx=0;exitDy=0;exitPerimeter=0;" edge="1" parent="1" source="qECTr6zoX_LYbof8itnt-32" target="qECTr6zoX_LYbof8itnt-33">
          <mxGeometry width="160" relative="1" as="geometry">
            <mxPoint x="200" y="892.5" as="sourcePoint" />
            <mxPoint x="360" y="892.5" as="targetPoint" />
          </mxGeometry>
        </mxCell>
        <mxCell id="qECTr6zoX_LYbof8itnt-50" value="Filter by" style="edgeLabel;html=1;align=center;verticalAlign=middle;resizable=0;points=[];" vertex="1" connectable="0" parent="qECTr6zoX_LYbof8itnt-49">
          <mxGeometry x="-0.0842" y="-2" relative="1" as="geometry">
            <mxPoint as="offset" />
          </mxGeometry>
        </mxCell>
        <mxCell id="qECTr6zoX_LYbof8itnt-51" value="" style="endArrow=open;endFill=1;endSize=12;html=1;rounded=0;entryX=0.153;entryY=0;entryDx=0;entryDy=0;entryPerimeter=0;" edge="1" parent="1" target="qECTr6zoX_LYbof8itnt-41">
          <mxGeometry width="160" relative="1" as="geometry">
            <mxPoint x="590" y="870" as="sourcePoint" />
            <mxPoint x="750" y="870" as="targetPoint" />
          </mxGeometry>
        </mxCell>
        <mxCell id="qECTr6zoX_LYbof8itnt-52" value="filterby" style="edgeLabel;html=1;align=center;verticalAlign=middle;resizable=0;points=[];" vertex="1" connectable="0" parent="qECTr6zoX_LYbof8itnt-51">
          <mxGeometry x="-0.1762" y="-4" relative="1" as="geometry">
            <mxPoint y="-1" as="offset" />
          </mxGeometry>
        </mxCell>
        <mxCell id="qECTr6zoX_LYbof8itnt-53" value="1" style="text;html=1;align=center;verticalAlign=middle;resizable=0;points=[];autosize=1;strokeColor=none;fillColor=none;" vertex="1" parent="1">
          <mxGeometry x="695" y="1088" width="30" height="30" as="geometry" />
        </mxCell>
        <mxCell id="qECTr6zoX_LYbof8itnt-54" value="&lt;font style=&quot;font-size: 18px;&quot;&gt;Post condition&lt;/font&gt;" style="text;html=1;align=center;verticalAlign=middle;resizable=0;points=[];autosize=1;strokeColor=none;fillColor=none;" vertex="1" parent="1">
          <mxGeometry x="450" y="660" width="140" height="40" as="geometry" />
        </mxCell>
        <mxCell id="qECTr6zoX_LYbof8itnt-55" value="&lt;font style=&quot;font-size: 14px;&quot;&gt;Owner:user&lt;/font&gt;" style="swimlane;fontStyle=0;childLayout=stackLayout;horizontal=1;startSize=26;fillColor=none;horizontalStack=0;resizeParent=1;resizeParentMax=0;resizeLast=0;collapsible=1;marginBottom=0;whiteSpace=wrap;html=1;" vertex="1" parent="1">
          <mxGeometry x="375" y="1300" width="165" height="90" as="geometry" />
        </mxCell>
        <mxCell id="qECTr6zoX_LYbof8itnt-58" value="&lt;font style=&quot;font-size: 14px;&quot;&gt;&lt;span style=&quot;text-wrap-mode: nowrap;&quot;&gt;Name= &quot;omar amir&quot;&lt;/span&gt;&lt;br style=&quot;text-wrap-mode: nowrap; padding: 0px; margin: 0px;&quot;&gt;&lt;span style=&quot;text-wrap-mode: nowrap;&quot;&gt;Password= ******&lt;/span&gt;&lt;br style=&quot;text-wrap-mode: nowrap; padding: 0px; margin: 0px;&quot;&gt;&lt;span style=&quot;text-wrap-mode: nowrap;&quot;&gt;userid= 9&lt;/span&gt;&lt;/font&gt;" style="text;strokeColor=none;fillColor=none;align=left;verticalAlign=top;spacingLeft=4;spacingRight=4;overflow=hidden;rotatable=0;points=[[0,0.5],[1,0.5]];portConstraint=eastwest;whiteSpace=wrap;html=1;" vertex="1" parent="qECTr6zoX_LYbof8itnt-55">
          <mxGeometry y="26" width="165" height="64" as="geometry" />
        </mxCell>
        <mxCell id="qECTr6zoX_LYbof8itnt-59" value="" style="endArrow=open;endFill=1;endSize=12;html=1;rounded=0;exitX=0.32;exitY=-0.042;exitDx=0;exitDy=0;exitPerimeter=0;entryX=0.315;entryY=1.019;entryDx=0;entryDy=0;entryPerimeter=0;" edge="1" parent="1" source="qECTr6zoX_LYbof8itnt-55" target="qECTr6zoX_LYbof8itnt-36">
          <mxGeometry width="160" relative="1" as="geometry">
            <mxPoint x="500" y="1250" as="sourcePoint" />
            <mxPoint x="390" y="1210" as="targetPoint" />
          </mxGeometry>
        </mxCell>
        <mxCell id="qECTr6zoX_LYbof8itnt-61" value="owns" style="edgeLabel;html=1;align=center;verticalAlign=middle;resizable=0;points=[];" vertex="1" connectable="0" parent="qECTr6zoX_LYbof8itnt-59">
          <mxGeometry x="-0.182" y="1" relative="1" as="geometry">
            <mxPoint as="offset" />
          </mxGeometry>
        </mxCell>
        <mxCell id="qECTr6zoX_LYbof8itnt-60" value="0..*" style="text;html=1;align=center;verticalAlign=middle;resizable=0;points=[];autosize=1;strokeColor=none;fillColor=none;" vertex="1" parent="1">
          <mxGeometry x="450" y="1188" width="40" height="30" as="geometry" />
        </mxCell>
        <mxCell id="qECTr6zoX_LYbof8itnt-62" value="1" style="text;html=1;align=center;verticalAlign=middle;resizable=0;points=[];autosize=1;strokeColor=none;fillColor=none;" vertex="1" parent="1">
          <mxGeometry x="455" y="1268" width="30" height="30" as="geometry" />
        </mxCell>
      </root>
    </mxGraphModel>
  </diagram>
</mxfile>
